<svg xmlns="http://www.w3.org/2000/svg" version="1.1" xmlns:xlink="http://www.w3.org/1999/xlink" xmlns:svgjs="http://svgjs.com/svgjs" width="1440" height="560" preserveAspectRatio="none" viewBox="0 0 1440 560">
    <g mask="url(&quot;#SvgjsMask1112&quot;)" fill="none">
        <rect width="1440" height="560" x="0" y="0" fill="#1e3266"></rect>
        <path d="M1512 560L0 560 L0 371.24Q13.63 312.88, 72 326.51Q116.06 250.57, 192 294.64Q277.8 260.44, 312 346.24Q358.53 320.77, 384 367.3Q425.37 288.67, 504 330.04Q597.65 303.7, 624 397.35Q645.53 346.88, 696 368.42Q744.47 296.89, 816 345.36Q848.95 258.31, 936 291.27Q1001.15 236.42, 1056 301.57Q1164.94 290.51, 1176 399.45Q1180.01 331.46, 1248 335.47Q1264.99 280.46, 1320 297.45Q1349.31 254.76, 1392 284.07Q1482.3 254.37, 1512 344.66z" fill="#182f5d"></path>
        <path d="M1560 560L0 560 L0 431.56Q91.87 403.43, 120 495.29Q132.71 436, 192 448.71Q240.05 376.76, 312 424.81Q371.82 412.63, 384 472.46Q412.88 429.34, 456 458.22Q474.71 356.93, 576 375.64Q646.73 326.37, 696 397.1Q767.26 348.37, 816 419.63Q912.94 396.57, 936 493.52Q978.73 416.25, 1056 458.98Q1065.81 396.78, 1128 406.59Q1178.13 336.71, 1248 386.84Q1330.37 349.21, 1368 431.58Q1395.25 386.83, 1440 414.08Q1518.44 372.52, 1560 450.97z" fill="#25467d"></path>
        <path d="M1536 560L0 560 L0 567.21Q61.02 508.23, 120 569.25Q124.82 502.07, 192 506.88Q217.34 460.22, 264 485.56Q348.43 449.99, 384 534.41Q440.25 518.66, 456 574.92Q481 527.92, 528 552.93Q546.15 451.08, 648 469.23Q715.19 416.42, 768 483.61Q814.67 458.28, 840 504.95Q902.28 495.23, 912 557.51Q928.7 502.21, 984 518.92Q1019.85 434.77, 1104 470.62Q1149.47 444.09, 1176 489.56Q1253.08 446.64, 1296 523.72Q1364.65 472.37, 1416 541.02Q1452.73 457.75, 1536 494.48z" fill="#356cb1"></path>
    </g>
    <defs>
        <mask id="SvgjsMask1112">
            <rect width="1440" height="560" fill="#ffffff"></rect>
        </mask>
    </defs>
</svg>